<mxfile host="app.diagrams.net" modified="2021-12-16T03:37:56.996Z" agent="5.0 (Windows)" etag="4_UWbi6g64weYr_Jas-f" version="15.8.8" type="github">
  <diagram id="AV1HwuTn1DYeJQvIMxrm" name="Page-1">
    <mxGraphModel dx="687" dy="371" grid="1" gridSize="10" guides="1" tooltips="1" connect="1" arrows="1" fold="1" page="1" pageScale="1" pageWidth="827" pageHeight="1169" math="0" shadow="0">
      <root>
        <mxCell id="0" />
        <mxCell id="1" parent="0" />
        <mxCell id="wfztL-jJMyvybedUdsqD-147" value="" style="group" parent="1" vertex="1" connectable="0">
          <mxGeometry x="360" y="250" width="423.53999999999996" height="206" as="geometry" />
        </mxCell>
        <mxCell id="buIEA10m9cwLhh5WBDVO-53" value="" style="rounded=0;whiteSpace=wrap;html=1;fillColor=#d0cee2;strokeColor=#56517e;" parent="wfztL-jJMyvybedUdsqD-147" vertex="1">
          <mxGeometry x="93.53999999999999" y="6" width="80" height="170" as="geometry" />
        </mxCell>
        <mxCell id="buIEA10m9cwLhh5WBDVO-52" value="" style="rounded=0;whiteSpace=wrap;html=1;fillColor=#d0cee2;strokeColor=#56517e;" parent="wfztL-jJMyvybedUdsqD-147" vertex="1">
          <mxGeometry x="253.54" y="6" width="110" height="170" as="geometry" />
        </mxCell>
        <mxCell id="buIEA10m9cwLhh5WBDVO-32" value="" style="endArrow=classic;html=1;rounded=0;" parent="wfztL-jJMyvybedUdsqD-147" edge="1">
          <mxGeometry width="50" height="50" relative="1" as="geometry">
            <mxPoint x="173.54" y="176" as="sourcePoint" />
            <mxPoint x="213.54" y="6" as="targetPoint" />
          </mxGeometry>
        </mxCell>
        <mxCell id="buIEA10m9cwLhh5WBDVO-20" value="" style="endArrow=classic;html=1;rounded=0;" parent="wfztL-jJMyvybedUdsqD-147" edge="1">
          <mxGeometry width="50" height="50" relative="1" as="geometry">
            <mxPoint x="93.53999999999999" y="6" as="sourcePoint" />
            <mxPoint x="173.54" y="176" as="targetPoint" />
          </mxGeometry>
        </mxCell>
        <mxCell id="buIEA10m9cwLhh5WBDVO-1" value="" style="endArrow=none;html=1;rounded=0;shape=link;" parent="wfztL-jJMyvybedUdsqD-147" edge="1">
          <mxGeometry width="50" height="50" relative="1" as="geometry">
            <mxPoint x="93.53999999999999" y="6" as="sourcePoint" />
            <mxPoint x="413.53999999999996" y="6" as="targetPoint" />
          </mxGeometry>
        </mxCell>
        <mxCell id="buIEA10m9cwLhh5WBDVO-2" value="" style="endArrow=none;html=1;rounded=0;" parent="wfztL-jJMyvybedUdsqD-147" edge="1">
          <mxGeometry width="50" height="50" relative="1" as="geometry">
            <mxPoint x="93.53999999999999" y="95.5" as="sourcePoint" />
            <mxPoint x="413.53999999999996" y="96" as="targetPoint" />
          </mxGeometry>
        </mxCell>
        <mxCell id="buIEA10m9cwLhh5WBDVO-3" value="" style="endArrow=none;html=1;rounded=0;" parent="wfztL-jJMyvybedUdsqD-147" edge="1">
          <mxGeometry width="50" height="50" relative="1" as="geometry">
            <mxPoint x="93.53999999999999" y="135" as="sourcePoint" />
            <mxPoint x="413.53999999999996" y="135" as="targetPoint" />
          </mxGeometry>
        </mxCell>
        <mxCell id="buIEA10m9cwLhh5WBDVO-4" value="" style="endArrow=none;html=1;rounded=0;" parent="wfztL-jJMyvybedUdsqD-147" edge="1">
          <mxGeometry width="50" height="50" relative="1" as="geometry">
            <mxPoint x="93.53999999999999" y="175.5" as="sourcePoint" />
            <mxPoint x="413.53999999999996" y="176" as="targetPoint" />
          </mxGeometry>
        </mxCell>
        <mxCell id="buIEA10m9cwLhh5WBDVO-5" value="" style="endArrow=none;dashed=1;html=1;dashPattern=1 3;strokeWidth=2;rounded=0;" parent="wfztL-jJMyvybedUdsqD-147" edge="1">
          <mxGeometry width="50" height="50" relative="1" as="geometry">
            <mxPoint x="173.54" y="196" as="sourcePoint" />
            <mxPoint x="173.54" y="6" as="targetPoint" />
          </mxGeometry>
        </mxCell>
        <mxCell id="buIEA10m9cwLhh5WBDVO-7" value="" style="endArrow=none;dashed=1;html=1;dashPattern=1 3;strokeWidth=2;rounded=0;" parent="wfztL-jJMyvybedUdsqD-147" edge="1">
          <mxGeometry width="50" height="50" relative="1" as="geometry">
            <mxPoint x="253.54" y="196" as="sourcePoint" />
            <mxPoint x="253.54" y="6" as="targetPoint" />
          </mxGeometry>
        </mxCell>
        <mxCell id="buIEA10m9cwLhh5WBDVO-8" value="" style="endArrow=none;dashed=1;html=1;dashPattern=1 3;strokeWidth=2;rounded=0;" parent="wfztL-jJMyvybedUdsqD-147" edge="1">
          <mxGeometry width="50" height="50" relative="1" as="geometry">
            <mxPoint x="363.53999999999996" y="196" as="sourcePoint" />
            <mxPoint x="363.53999999999996" y="6" as="targetPoint" />
          </mxGeometry>
        </mxCell>
        <mxCell id="buIEA10m9cwLhh5WBDVO-9" value="" style="endArrow=none;dashed=1;html=1;dashPattern=1 3;strokeWidth=2;rounded=0;" parent="wfztL-jJMyvybedUdsqD-147" edge="1">
          <mxGeometry width="50" height="50" relative="1" as="geometry">
            <mxPoint x="413.53999999999996" y="176" as="sourcePoint" />
            <mxPoint x="413.53999999999996" y="6" as="targetPoint" />
          </mxGeometry>
        </mxCell>
        <mxCell id="buIEA10m9cwLhh5WBDVO-10" value="" style="endArrow=none;dashed=1;html=1;dashPattern=1 3;strokeWidth=2;rounded=0;" parent="wfztL-jJMyvybedUdsqD-147" edge="1">
          <mxGeometry width="50" height="50" relative="1" as="geometry">
            <mxPoint x="93.53999999999999" y="196" as="sourcePoint" />
            <mxPoint x="93.53999999999999" y="6" as="targetPoint" />
          </mxGeometry>
        </mxCell>
        <mxCell id="buIEA10m9cwLhh5WBDVO-12" value="Initialization" style="text;html=1;align=center;verticalAlign=middle;resizable=0;points=[];autosize=1;strokeColor=none;fillColor=none;fontFamily=Times New Roman;" parent="wfztL-jJMyvybedUdsqD-147" vertex="1">
          <mxGeometry x="93.53999999999999" y="176" width="80" height="20" as="geometry" />
        </mxCell>
        <mxCell id="buIEA10m9cwLhh5WBDVO-13" value="Access" style="text;html=1;align=center;verticalAlign=middle;resizable=0;points=[];autosize=1;strokeColor=none;fillColor=none;fontFamily=Times New Roman;" parent="wfztL-jJMyvybedUdsqD-147" vertex="1">
          <mxGeometry x="283.53999999999996" y="176" width="50" height="20" as="geometry" />
        </mxCell>
        <mxCell id="buIEA10m9cwLhh5WBDVO-18" value="" style="endArrow=classic;html=1;rounded=0;" parent="wfztL-jJMyvybedUdsqD-147" edge="1">
          <mxGeometry width="50" height="50" relative="1" as="geometry">
            <mxPoint x="93.53999999999999" y="6" as="sourcePoint" />
            <mxPoint x="173.54" y="96" as="targetPoint" />
          </mxGeometry>
        </mxCell>
        <mxCell id="buIEA10m9cwLhh5WBDVO-19" value="" style="endArrow=classic;html=1;rounded=0;" parent="wfztL-jJMyvybedUdsqD-147" edge="1">
          <mxGeometry width="50" height="50" relative="1" as="geometry">
            <mxPoint x="93.53999999999999" y="6" as="sourcePoint" />
            <mxPoint x="173.54" y="136" as="targetPoint" />
          </mxGeometry>
        </mxCell>
        <mxCell id="buIEA10m9cwLhh5WBDVO-36" value="Initial ORAP-Index" style="edgeLabel;html=1;align=center;verticalAlign=middle;resizable=0;points=[];rotation=0;fontFamily=Times New Roman;" parent="buIEA10m9cwLhh5WBDVO-19" vertex="1" connectable="0">
          <mxGeometry x="-0.1337" y="-1" relative="1" as="geometry">
            <mxPoint x="6" y="3" as="offset" />
          </mxGeometry>
        </mxCell>
        <mxCell id="buIEA10m9cwLhh5WBDVO-28" value="" style="shape=image;verticalLabelPosition=bottom;labelBackgroundColor=#ffffff;verticalAlign=top;aspect=fixed;imageAspect=0;image=data:image/png,iVBORw0KGgoAAAANSUhEUgAAACMAAAAsCAYAAADvjwGMAAAJHUlEQVRYhbWY/08UZx7H/W9OmtZLancFlGW/zu7O7uwsrBTxEOkp0Kb2tGlpe6c2KSwcIDkbWSz9oWkETK/+cJ6yiOJFk8Mvl/7QqNGesBztoe2ZGFkQC8zMzr7uh9kZlgJasH2Sd55nZ2af5/28P8/X94ZsNgtANptdG4w/Wb/NOjKZDJqqktG0VaGpKplMZlmdGwCj4jWkbK5hPVeJruvoum6R+vkVLXYKYMMSZXQddN34SNcNZLOQV9ZzZV3Xl9X9ZHaWGzducOnSJS5fvrwqzp49y9WrV1EUxWrbIKPrRk913ZAxkzGQK2uqiqooKAsLKIpCJpOxGtc0jZmZGa5dv87HR4/yekM9sVgMMSgSCAYIBoMEAgFEUUQURVwuFyUlJex7802uX/8Xj9JTLCgLVic3kM2i56TSNQ1VUdBUFU3T0DQNPa9xAFVRmJyc5J8jIxw7doyamhoC/gA+nw+Px0M4FEaOyEQjUaLRKFJYwu8P4HA4qK6u5m9/O83/Hjzgs88+o7mlhUdTUwBkMpkcmWzWIJPJLJJRVchmWZif54cffuDGjZuc/OILDh0+TEVFBYWFhRQWFuIoLcXr9SL4BHxeHz6fAZfLRamjFIejlEgkQldXF+PjKa5du8a+fft4+eWX+eCPH/B4ZmZRmfwwqbmQZHIKfX//PsPDF2hra6Ph9QZeffVVIpJEZWUlu3fvpra2lpqaGnbt2mWhqqqK6upq6vbu5cDbb/PJJz3cvHGDf3/zDe0d7TidTnw+H4LXx6HDh5iengbIkcmbEWbS9SyqqvLdd99y69Ytbt68yZ3bt/nPxAST9+4xMTHB+Pg44+PjpMbHGUulGEulSKVSxrtUisnJSVRFYSo9xeeff04sFqOoqJhwKEwsFsPtcnPw0EFmfkrGJPLtxASffvopHR0ddHZ28vHHR0kkEvT09NDT00Oiu5tjXV0kEgm6u7vp7u4mkUiQSCToSiQ41tXFmTNnePz4MQD/nbzHH/bvp7CwEL/gJypHCYfDRCIRPG4Phw4fWkrGXB++v3+fN954nZKSEgRBwOPx4PF4cLvduFwunC4XrlXgdDqt8rZt24jH42Q0jdN/P83WrdsIhyVkWSYUCiGKIlE5itvlXk7GnKrnL1yguKgYSZIIBIzZIQjCM+EXBHw+H36/n0gkgs/rIxaLMfHtBH39fbjdbsJhySISCoWQZXkVZTSNbDZLMpmkuKiY8rIyqnfVUF/fQF1dHXv21lFfX099fT11dXXsraujvsEo19fXW+9rX/s9ZeVlCIJALBZjdHSU3r4+XC4XITFEOBwmFAoRCoWIytFVyOSUGR6+yKZNm3jnnXe4f+8es7OzPJqaYnpmhql0munpadJ5mJ4x8ql0mpnHj5lOp+k40oHdbqeqqoqx1Bh9/f24XC7CofDayAydP8/mzZvZs2cPX375V86dO8eZM2cYHEwycPYsyWSSgYEBBgcHrefJgQHO5r3bv38/jlIHlZWVjI4tKrNmMslkkq3FxQSDQWw2GzabHbt9C6+88go2+xZsNrsBuw2b3W7AZsOeyzdv3ozX4yUYCFJeXs7Y6Ci9fb3rVGZoCJvNkPjDDz+kpbWF5ngrzS1x4i2tNMdbiLf8mabmJlpaW4m3tNDU3ExTc5x4SwvxeJza3bV43B62b9/O2NjY+pW5ePEfvPTiS7zb2Mjs7OyyHfnnpL8cPUphUSFVVVXcvXuXE73rJHPu3BB2u52dO3fS9FETnUc6aWtro629nSPtHbS3tdPR3rEM7W3tHOk4QmtrK7W1r+F2u6moqHg+ZQaSSbZt3UYwGOTFF1/iNxs3UlBQwMaCAgoKXqDAypdj48YCCl54AY/L/QuNmfzZdOoUw8PDnBsaYuj8EENDq+Pc0BAXLlxgcHCQAwcO4HD8ArPpwvAwv920iXcb3+Xhw4fous7c3ByKoliHK1VRWFhYYCFXVhYWjOeqyvz8PJ2dnWzZsoUdVVWM3r37fFO7qKiIqCxTWbmDXTU1/K56F9W7ap4K85uqnTuRwhKCIBhhGhtbf5iSySSFhYVEo1ECgYCx7/j9z4QoilY5IkXwC/68MbNOZQYHBykqKkKWZWOblyJIYYmIFFkGSVp8HhTFJc/NvSmVStHX/5xkotGotbuuBvO91+tBFEV8Pi9iUCQSMZSJxWJPVUaW5ZWPECuRCYWMXXYliKKIJEn4fD4OHvwT165d46OPmhD8ArIs4/c9m8yalHkaGbNnDoeD4eFhAC5dukzAH0CSJEuZp4VJjsjWsXM6nbZuoutSJhwOIwgCDQ0NnDhxgrfeegtBEJAj8jPJmCc9R4mDeDzOj3Nzi8pkNG3NyphjxryW+Hw+RDE3Zp4SJrMjkiRRWlrK6dOnjctA7t69ZmVMQpbseae4/DD9dG/KD1FpqZP3GhtJT01BLkTWgXytyuTn+eEzZ9PiordUmfwz8q1btwDQVNUYM+sJ0zJl8mCEScgLUy9Op5OQaKgWCoXw+rz09580iCiKFaJ1h2k1gkuUGR1dHMCioYrb7aKxsZHpdBpNU1FV1Rq8ZLPrU+bZZMoYHb3LiRMncDqdSFKEQCBAeazcCs/83NwSVbLrWWeeScYM09iYQaa0FEmW8Xi99Pb2AqAoClrOcjHdL37dMBkD2LyZNjY28uOTJ6iKgmrabLm2f1UyxqI3Rm9/HyUOB9FolDt3vrFUMU0oc6z8usrEykmlRuk/eRK7zcbJ/v7F8OSMqIxpRD2NjCzLz9y1V9vJJUlC8AmUx8qZmJjg+PHjNDQ0MDc3B1nDZsnkjChNVVcgk7trDwwMUFxUTKw8ZpxjIrnzy0r5Cs+ksEQ0GiUYFNleUcGd27c5deoUX331lbW4mYpkMhnUlchkrHvTRYqLign4AwQDQfyCn4A/YOUrIf8b89RX6nRStWMHd+7cIT31iIX5ecv7tZBzxjKaZjipxmKz6M88ePCA999/D38gQFlZGZJkeCpmHolEiJh5rrzkm6jxLhQKcby7m/n5eQDLI9R1fYlhbYVJ1w1PMd9GA3j48CHXr1/nysgIV69cWROujIxwZWSEr7/+mh+fPAGwNsB8/zjftjPDYxrTG8wfP7VYnyeZK2q++/1z0v8B8riWh0uNgpEAAAAASUVORK5CYII=;" parent="wfztL-jJMyvybedUdsqD-147" vertex="1">
          <mxGeometry x="50" width="25.45" height="32" as="geometry" />
        </mxCell>
        <mxCell id="buIEA10m9cwLhh5WBDVO-29" value="" style="endArrow=classic;html=1;rounded=0;" parent="wfztL-jJMyvybedUdsqD-147" edge="1">
          <mxGeometry width="50" height="50" relative="1" as="geometry">
            <mxPoint x="173.54" y="96" as="sourcePoint" />
            <mxPoint x="213.54" y="6" as="targetPoint" />
          </mxGeometry>
        </mxCell>
        <mxCell id="buIEA10m9cwLhh5WBDVO-31" value="" style="endArrow=classic;html=1;rounded=0;" parent="wfztL-jJMyvybedUdsqD-147" edge="1">
          <mxGeometry width="50" height="50" relative="1" as="geometry">
            <mxPoint x="173.54" y="136" as="sourcePoint" />
            <mxPoint x="213.54" y="6" as="targetPoint" />
          </mxGeometry>
        </mxCell>
        <mxCell id="buIEA10m9cwLhh5WBDVO-37" value="Sync Request" style="edgeLabel;html=1;align=center;verticalAlign=middle;resizable=0;points=[];fontFamily=Times New Roman;" parent="buIEA10m9cwLhh5WBDVO-31" vertex="1" connectable="0">
          <mxGeometry x="0.1968" relative="1" as="geometry">
            <mxPoint x="-14" y="-22" as="offset" />
          </mxGeometry>
        </mxCell>
        <mxCell id="buIEA10m9cwLhh5WBDVO-33" value="" style="endArrow=classic;html=1;rounded=0;" parent="wfztL-jJMyvybedUdsqD-147" edge="1">
          <mxGeometry width="50" height="50" relative="1" as="geometry">
            <mxPoint x="213.54" y="6" as="sourcePoint" />
            <mxPoint x="253.54" y="96" as="targetPoint" />
          </mxGeometry>
        </mxCell>
        <mxCell id="buIEA10m9cwLhh5WBDVO-34" value="" style="endArrow=classic;html=1;rounded=0;" parent="wfztL-jJMyvybedUdsqD-147" edge="1">
          <mxGeometry width="50" height="50" relative="1" as="geometry">
            <mxPoint x="213.54" y="6" as="sourcePoint" />
            <mxPoint x="253.54" y="136" as="targetPoint" />
          </mxGeometry>
        </mxCell>
        <mxCell id="buIEA10m9cwLhh5WBDVO-35" value="" style="endArrow=classic;html=1;rounded=0;" parent="wfztL-jJMyvybedUdsqD-147" edge="1">
          <mxGeometry width="50" height="50" relative="1" as="geometry">
            <mxPoint x="213.54" y="6" as="sourcePoint" />
            <mxPoint x="253.54" y="176" as="targetPoint" />
          </mxGeometry>
        </mxCell>
        <mxCell id="buIEA10m9cwLhh5WBDVO-38" value="Latest Index" style="edgeLabel;html=1;align=center;verticalAlign=middle;resizable=0;points=[];fontFamily=Times New Roman;" parent="buIEA10m9cwLhh5WBDVO-35" vertex="1" connectable="0">
          <mxGeometry x="0.3217" y="-2" relative="1" as="geometry">
            <mxPoint y="-53" as="offset" />
          </mxGeometry>
        </mxCell>
        <mxCell id="buIEA10m9cwLhh5WBDVO-39" value="" style="endArrow=classic;html=1;rounded=0;" parent="wfztL-jJMyvybedUdsqD-147" edge="1">
          <mxGeometry width="50" height="50" relative="1" as="geometry">
            <mxPoint x="253.54" y="176" as="sourcePoint" />
            <mxPoint x="293.53999999999996" y="6" as="targetPoint" />
          </mxGeometry>
        </mxCell>
        <mxCell id="buIEA10m9cwLhh5WBDVO-42" value="Query" style="edgeLabel;html=1;align=center;verticalAlign=middle;resizable=0;points=[];fontFamily=Times New Roman;" parent="buIEA10m9cwLhh5WBDVO-39" vertex="1" connectable="0">
          <mxGeometry x="-0.2676" y="1" relative="1" as="geometry">
            <mxPoint y="33" as="offset" />
          </mxGeometry>
        </mxCell>
        <mxCell id="buIEA10m9cwLhh5WBDVO-40" value="" style="endArrow=classic;html=1;rounded=0;" parent="wfztL-jJMyvybedUdsqD-147" edge="1">
          <mxGeometry width="50" height="50" relative="1" as="geometry">
            <mxPoint x="293.53999999999996" y="6" as="sourcePoint" />
            <mxPoint x="323.53999999999996" y="176" as="targetPoint" />
          </mxGeometry>
        </mxCell>
        <mxCell id="buIEA10m9cwLhh5WBDVO-43" value="Blocks Info" style="edgeLabel;html=1;align=center;verticalAlign=middle;resizable=0;points=[];fontFamily=Times New Roman;" parent="buIEA10m9cwLhh5WBDVO-40" vertex="1" connectable="0">
          <mxGeometry x="-0.1145" y="-3" relative="1" as="geometry">
            <mxPoint x="4" as="offset" />
          </mxGeometry>
        </mxCell>
        <mxCell id="buIEA10m9cwLhh5WBDVO-41" value="" style="endArrow=classic;html=1;rounded=0;" parent="wfztL-jJMyvybedUdsqD-147" edge="1">
          <mxGeometry width="50" height="50" relative="1" as="geometry">
            <mxPoint x="323.53999999999996" y="176" as="sourcePoint" />
            <mxPoint x="363.53999999999996" y="6" as="targetPoint" />
          </mxGeometry>
        </mxCell>
        <mxCell id="buIEA10m9cwLhh5WBDVO-44" value="New Transactions" style="edgeLabel;html=1;align=center;verticalAlign=middle;resizable=0;points=[];fontFamily=Times New Roman;" parent="buIEA10m9cwLhh5WBDVO-41" vertex="1" connectable="0">
          <mxGeometry x="0.4429" y="-1" relative="1" as="geometry">
            <mxPoint x="7" as="offset" />
          </mxGeometry>
        </mxCell>
        <mxCell id="buIEA10m9cwLhh5WBDVO-55" value="&lt;div style=&quot;font-size: 11px&quot;&gt;Validation &lt;br&gt;&lt;/div&gt;&lt;div style=&quot;font-size: 11px&quot;&gt;&amp;amp; Update&lt;/div&gt;" style="text;html=1;align=center;verticalAlign=middle;resizable=0;points=[];autosize=1;strokeColor=none;fillColor=none;fontFamily=Times New Roman;" parent="wfztL-jJMyvybedUdsqD-147" vertex="1">
          <mxGeometry x="363.53999999999996" y="176" width="60" height="30" as="geometry" />
        </mxCell>
        <mxCell id="buIEA10m9cwLhh5WBDVO-56" value="&lt;font style=&quot;font-size: 10px&quot;&gt;Synchronization&lt;/font&gt;" style="text;html=1;align=center;verticalAlign=middle;resizable=0;points=[];autosize=1;strokeColor=none;fillColor=none;fontFamily=Times New Roman;" parent="wfztL-jJMyvybedUdsqD-147" vertex="1">
          <mxGeometry x="173.54" y="176" width="80" height="20" as="geometry" />
        </mxCell>
        <mxCell id="wfztL-jJMyvybedUdsqD-41" value="" style="shape=image;verticalLabelPosition=bottom;labelBackgroundColor=#ffffff;verticalAlign=top;aspect=fixed;imageAspect=0;image=data:image/png,iVBORw0KGgoAAAANSUhEUgAAACoAAABDCAYAAADqOJfJAAAAAXNSR0IArs4c6QAAAARnQU1BAACxjwv8YQUAAAAJcEhZcwAADsMAAA7DAcdvqGQAAAHUSURBVGhD7dq9S0JRGMfx/pNebmVUZBRUVhQ0CBX9B4KWBKVW0hL9Cb0tFTZLQ7UZWtnLooJtegXbXGyx5TqJS+oTt3tULh0vN3r0Jjxf+G3nHD+D4+2ANql9oZVKBaKRCOzv7cGOZwu23Z6WbNfrhUu/HwqFApOoU0FLnyXwuFwgdHYZttkpC7xns0xUTwW98Pm4l1u9laVlJqqngs5Nz3AvNtq4eRQew2F4eXrWnNOxyr2vNTGZZCqlGlT+b/IuaK1fEGDN7oB1p1NzlolJ7n2thYJBJlOqQcvlMveCUbsNBJhMqf2hRkVQ7AiKHUGxIyh2BMWOoNgRFDuCYkdQ7AiKHUGxIyh2BMWOoNgRFDuCYkdQ7AiKHUGxIyh2BMWOoNgRFLtfQ41eU6EnR8cgSRLEojEwDw1zz+hd06B2m429pHRzdc09p3cNoXImoZd7Sc/cG5vsFaX70B33nN6FHx7YS0oqqPzFDe+Snslf7FQf/8jlYGF+nntOzwb7TZCX8t9vVVNBk4kEDJkGuJf1rK+75/tLsL+8Ie/o4JCJ6qmgcq/xOCxardwHmr2xETOcn54xibof0GqZTAZSYgpEUWzJ3tJpKBaL7Nd/1hD63yIobgBfxf6hA/Ju8CUAAAAASUVORK5CYII=;" parent="wfztL-jJMyvybedUdsqD-147" vertex="1">
          <mxGeometry x="53.31999999999999" y="161" width="18.81" height="30" as="geometry" />
        </mxCell>
        <mxCell id="wfztL-jJMyvybedUdsqD-42" value="" style="shape=image;verticalLabelPosition=bottom;labelBackgroundColor=#ffffff;verticalAlign=top;aspect=fixed;imageAspect=0;image=data:image/png,iVBORw0KGgoAAAANSUhEUgAAACoAAABDCAYAAADqOJfJAAAAAXNSR0IArs4c6QAAAARnQU1BAACxjwv8YQUAAAAJcEhZcwAADsMAAA7DAcdvqGQAAAHUSURBVGhD7dq9S0JRGMfx/pNebmVUZBRUVhQ0CBX9B4KWBKVW0hL9Cb0tFTZLQ7UZWtnLooJtegXbXGyx5TqJS+oTt3tULh0vN3r0Jjxf+G3nHD+D4+2ANql9oZVKBaKRCOzv7cGOZwu23Z6WbNfrhUu/HwqFApOoU0FLnyXwuFwgdHYZttkpC7xns0xUTwW98Pm4l1u9laVlJqqngs5Nz3AvNtq4eRQew2F4eXrWnNOxyr2vNTGZZCqlGlT+b/IuaK1fEGDN7oB1p1NzlolJ7n2thYJBJlOqQcvlMveCUbsNBJhMqf2hRkVQ7AiKHUGxIyh2BMWOoNgRFDuCYkdQ7AiKHUGxIyh2BMWOoNgRFDuCYkdQ7AiKHUGxIyh2BMWOoNgRFLtfQ41eU6EnR8cgSRLEojEwDw1zz+hd06B2m429pHRzdc09p3cNoXImoZd7Sc/cG5vsFaX70B33nN6FHx7YS0oqqPzFDe+Snslf7FQf/8jlYGF+nntOzwb7TZCX8t9vVVNBk4kEDJkGuJf1rK+75/tLsL+8Ie/o4JCJ6qmgcq/xOCxardwHmr2xETOcn54xibof0GqZTAZSYgpEUWzJ3tJpKBaL7Nd/1hD63yIobgBfxf6hA/Ju8CUAAAAASUVORK5CYII=;" parent="wfztL-jJMyvybedUdsqD-147" vertex="1">
          <mxGeometry x="53.53999999999999" y="121" width="18.81" height="30" as="geometry" />
        </mxCell>
        <mxCell id="wfztL-jJMyvybedUdsqD-43" value="" style="shape=image;verticalLabelPosition=bottom;labelBackgroundColor=#ffffff;verticalAlign=top;aspect=fixed;imageAspect=0;image=data:image/png,iVBORw0KGgoAAAANSUhEUgAAACoAAABDCAYAAADqOJfJAAAAAXNSR0IArs4c6QAAAARnQU1BAACxjwv8YQUAAAAJcEhZcwAADsMAAA7DAcdvqGQAAAHUSURBVGhD7dq9S0JRGMfx/pNebmVUZBRUVhQ0CBX9B4KWBKVW0hL9Cb0tFTZLQ7UZWtnLooJtegXbXGyx5TqJS+oTt3tULh0vN3r0Jjxf+G3nHD+D4+2ANql9oZVKBaKRCOzv7cGOZwu23Z6WbNfrhUu/HwqFApOoU0FLnyXwuFwgdHYZttkpC7xns0xUTwW98Pm4l1u9laVlJqqngs5Nz3AvNtq4eRQew2F4eXrWnNOxyr2vNTGZZCqlGlT+b/IuaK1fEGDN7oB1p1NzlolJ7n2thYJBJlOqQcvlMveCUbsNBJhMqf2hRkVQ7AiKHUGxIyh2BMWOoNgRFDuCYkdQ7AiKHUGxIyh2BMWOoNgRFDuCYkdQ7AiKHUGxIyh2BMWOoNgRFLtfQ41eU6EnR8cgSRLEojEwDw1zz+hd06B2m429pHRzdc09p3cNoXImoZd7Sc/cG5vsFaX70B33nN6FHx7YS0oqqPzFDe+Snslf7FQf/8jlYGF+nntOzwb7TZCX8t9vVVNBk4kEDJkGuJf1rK+75/tLsL+8Ie/o4JCJ6qmgcq/xOCxardwHmr2xETOcn54xibof0GqZTAZSYgpEUWzJ3tJpKBaL7Nd/1hD63yIobgBfxf6hA/Ju8CUAAAAASUVORK5CYII=;" parent="wfztL-jJMyvybedUdsqD-147" vertex="1">
          <mxGeometry x="53.53999999999999" y="81" width="18.81" height="30" as="geometry" />
        </mxCell>
        <mxCell id="wfztL-jJMyvybedUdsqD-168" value="Client1" style="text;html=1;align=center;verticalAlign=middle;resizable=0;points=[];autosize=1;strokeColor=none;fillColor=none;fontFamily=Times New Roman;" parent="wfztL-jJMyvybedUdsqD-147" vertex="1">
          <mxGeometry x="-6.661338147750939e-15" y="86" width="50" height="20" as="geometry" />
        </mxCell>
        <mxCell id="wfztL-jJMyvybedUdsqD-169" value="Client2" style="text;html=1;align=center;verticalAlign=middle;resizable=0;points=[];autosize=1;strokeColor=none;fillColor=none;fontFamily=Times New Roman;" parent="wfztL-jJMyvybedUdsqD-147" vertex="1">
          <mxGeometry y="126" width="50" height="20" as="geometry" />
        </mxCell>
        <mxCell id="wfztL-jJMyvybedUdsqD-170" value="Client3" style="text;html=1;align=center;verticalAlign=middle;resizable=0;points=[];autosize=1;strokeColor=none;fillColor=none;fontFamily=Times New Roman;" parent="wfztL-jJMyvybedUdsqD-147" vertex="1">
          <mxGeometry y="166" width="50" height="20" as="geometry" />
        </mxCell>
        <mxCell id="wfztL-jJMyvybedUdsqD-167" value="Server" style="text;html=1;align=center;verticalAlign=middle;resizable=0;points=[];autosize=1;strokeColor=none;fillColor=none;fontFamily=Times New Roman;" parent="wfztL-jJMyvybedUdsqD-147" vertex="1">
          <mxGeometry y="6" width="50" height="20" as="geometry" />
        </mxCell>
      </root>
    </mxGraphModel>
  </diagram>
</mxfile>
